<svg xmlns="http://www.w3.org/2000/svg" xmlns:xlink="http://www.w3.org/1999/xlink" version="1.1" width="1000" height="1000" viewBox="0 0 1000 1000" xml:space="preserve">
<desc>Created with Fabric.js 3.5.0</desc>
<defs>
</defs>
<rect x="0" y="0" width="100%" height="100%" fill="rgba(255,255,255,0)"/>
<g transform="matrix(2.4668 0 0 2.4668 496.6491 499.9994)" id="973530">
<g style="" vector-effect="non-scaling-stroke">
		<g transform="matrix(0.1333 0 0 -0.1333 -96.9639 -88.3163)">
<path style="stroke: none; stroke-width: 1; stroke-dasharray: none; stroke-linecap: butt; stroke-dashoffset: 0; stroke-linejoin: miter; stroke-miterlimit: 4; is-custom-font: none; font-file-url: none; fill: rgb(0,0,0); fill-rule: nonzero; opacity: 1;" transform=" translate(-782.796, -1457.3492)" d="M 752 1539 c -26 -8 -37 -19 -53 -55 c -25 -60 -24 -76 7 -103 c 27 -23 40 -20 46 13 c 5 29 32 42 60 28 c 13 -7 34 -13 48 -14 c 23 -3 25 0 24 33 c -2 59 -12 85 -39 97 c -30 14 -47 14 -93 1 z" stroke-linecap="round"/>
</g>
		<g transform="matrix(0.1333 0 0 -0.1333 191.3072 -60.0045)">
<path style="stroke: none; stroke-width: 1; stroke-dasharray: none; stroke-linecap: butt; stroke-dashoffset: 0; stroke-linejoin: miter; stroke-miterlimit: 4; is-custom-font: none; font-file-url: none; fill: rgb(0,0,0); fill-rule: nonzero; opacity: 1;" transform=" translate(-2944.8144, -1245)" d="M 2906 1371 c -3 -5 1 -11 9 -15 c 22 -8 22 -214 0 -222 c -27 -11 -5 -24 38 -24 c 37 1 40 2 25 14 c -15 11 -18 31 -18 135 l 0 121 l -24 0 c -14 0 -27 -4 -30 -9 z" stroke-linecap="round"/>
</g>
		<g transform="matrix(0.1333 0 0 -0.1333 3.953 -58.0837)">
<path style="stroke: none; stroke-width: 1; stroke-dasharray: none; stroke-linecap: butt; stroke-dashoffset: 0; stroke-linejoin: miter; stroke-miterlimit: 4; is-custom-font: none; font-file-url: none; fill: rgb(0,0,0); fill-rule: nonzero; opacity: 1;" transform=" translate(-1539.6727, -1230.5977)" d="M 1440 1341 c 0 -6 7 -11 15 -11 c 12 0 15 -18 15 -100 c 0 -87 -2 -100 -17 -100 c -12 0 -14 -3 -6 -11 c 5 -5 34 -9 64 -7 c 52 3 53 4 26 16 l -28 12 l 3 92 c 3 92 3 93 29 96 c 33 4 59 -21 59 -57 c 0 -33 -27 -61 -58 -61 c -12 0 -22 -5 -22 -11 c 0 -8 13 -10 38 -6 c 70 12 107 91 61 133 c -16 14 -40 20 -100 23 c -53 2 -79 0 -79 -8 z" stroke-linecap="round"/>
</g>
		<g transform="matrix(0.1333 0 0 -0.1333 -84.9002 16.0492)">
<path style="stroke: none; stroke-width: 1; stroke-dasharray: none; stroke-linecap: butt; stroke-dashoffset: 0; stroke-linejoin: miter; stroke-miterlimit: 4; is-custom-font: none; font-file-url: none; fill: rgb(0,0,0); fill-rule: nonzero; opacity: 1;" transform=" translate(-873.4612, -674.4674)" d="M 730 1320 c 0 -5 -7 -10 -15 -10 c -9 0 -33 -11 -54 -24 c -21 -14 -54 -31 -74 -39 c -41 -18 -53 -46 -63 -159 c -9 -111 2 -185 32 -215 c 22 -22 24 -29 15 -56 c -6 -16 -11 -43 -11 -59 c 0 -21 -13 -44 -40 -75 c -59 -67 -83 -140 -78 -238 c 3 -60 10 -93 29 -132 l 26 -53 l -31 -4 c -17 -3 -74 -10 -126 -16 c -125 -14 -267 -46 -297 -66 c -17 -11 -23 -23 -21 -42 c 4 -36 62 -57 232 -83 c 168 -26 709 -38 946 -20 c 267 20 486 65 520 107 c 39 46 -142 101 -397 120 c -72 5 -93 10 -93 22 c 0 8 7 87 16 175 l 16 160 l -29 41 c -40 56 -123 112 -207 138 c -39 12 -77 26 -83 31 c -21 15 -15 43 12 55 c 20 9 25 19 25 50 c 0 21 -3 41 -6 45 c -3 3 -26 -3 -51 -14 c -53 -23 -69 -23 -105 -5 c -23 12 -29 12 -47 -1 c -20 -13 -21 -12 -21 10 c 0 18 -8 28 -30 37 c -16 7 -30 17 -30 22 c 0 20 106 158 121 158 c 9 0 32 -6 50 -14 c 77 -31 78 -31 69 11 c -9 40 -26 57 -77 79 c -17 7 -34 22 -38 33 c -8 26 -85 54 -85 31 z m 369 -752 l 23 -17 l -11 -125 c -6 -70 -11 -133 -11 -141 c 0 -11 -12 -15 -46 -15 c -40 0 -45 2 -39 18 c 37 84 47 130 42 197 c -3 39 -9 80 -12 93 c -6 19 -5 21 12 15 c 10 -5 29 -16 42 -25 z m -251 -389 l 3 -86 l -91 -7 c -51 -4 -93 -6 -94 -4 c -2 2 -6 42 -9 91 c -5 78 -4 87 11 87 c 9 0 26 -7 36 -15 c 30 -23 83 -19 96 6 c 6 11 19 19 28 17 c 14 -3 17 -18 20 -89 z" stroke-linecap="round"/>
</g>
		<g transform="matrix(0.1333 0 0 -0.1333 32.1915 -54.554)">
<path style="stroke: none; stroke-width: 1; stroke-dasharray: none; stroke-linecap: butt; stroke-dashoffset: 0; stroke-linejoin: miter; stroke-miterlimit: 4; is-custom-font: none; font-file-url: none; fill: rgb(0,0,0); fill-rule: nonzero; opacity: 1;" transform=" translate(-1751.4546, -1204.1316)" d="M 1709 1271 c -76 -76 0 -200 92 -151 c 31 17 22 26 -23 22 c -32 -3 -45 0 -55 14 c -25 34 -16 43 45 46 l 57 3 l -2 35 c -3 63 -64 80 -114 31 z m 69 -3 c 7 -7 12 -20 12 -30 c 0 -14 -8 -18 -40 -18 c -45 0 -50 10 -20 40 c 23 23 31 25 48 8 z" stroke-linecap="round"/>
</g>
		<g transform="matrix(0.1333 0 0 -0.1333 58.6763 -54.6284)">
<path style="stroke: none; stroke-width: 1; stroke-dasharray: none; stroke-linecap: butt; stroke-dashoffset: 0; stroke-linejoin: miter; stroke-miterlimit: 4; is-custom-font: none; font-file-url: none; fill: rgb(0,0,0); fill-rule: nonzero; opacity: 1;" transform=" translate(-1950.0896, -1204.6891)" d="M 1890 1289 c -11 -8 -12 -12 -2 -16 c 15 -6 17 -143 1 -143 c -5 0 -7 -4 -4 -10 c 3 -5 25 -10 48 -10 c 37 1 40 2 25 14 c -25 18 -26 131 -2 140 c 25 10 34 7 34 -10 c 0 -21 24 -12 28 10 c 6 31 -13 40 -49 25 c -25 -10 -34 -10 -37 -1 c -5 15 -22 15 -42 1 z" stroke-linecap="round"/>
</g>
		<g transform="matrix(0.1333 0 0 -0.1333 81.9168 -54.5757)">
<path style="stroke: none; stroke-width: 1; stroke-dasharray: none; stroke-linecap: butt; stroke-dashoffset: 0; stroke-linejoin: miter; stroke-miterlimit: 4; is-custom-font: none; font-file-url: none; fill: rgb(0,0,0); fill-rule: nonzero; opacity: 1;" transform=" translate(-2124.3921, -1204.2937)" d="M 2080 1282 c -34 -27 -21 -65 33 -94 c 48 -27 55 -52 15 -56 c -19 -2 -31 3 -40 17 c -17 28 -28 26 -28 -3 c 0 -27 16 -36 64 -36 c 73 0 88 57 26 97 c -66 43 -75 57 -41 68 c 24 7 51 -4 51 -21 c 0 -18 16 -18 24 1 c 15 40 -63 60 -104 27 z" stroke-linecap="round"/>
</g>
		<g transform="matrix(0.1333 0 0 -0.1333 108.7607 -54.5962)">
<path style="stroke: none; stroke-width: 1; stroke-dasharray: none; stroke-linecap: butt; stroke-dashoffset: 0; stroke-linejoin: miter; stroke-miterlimit: 4; is-custom-font: none; font-file-url: none; fill: rgb(0,0,0); fill-rule: nonzero; opacity: 1;" transform=" translate(-2325.7259, -1204.4478)" d="M 2273 1276 c -24 -21 -28 -32 -28 -76 c 0 -42 4 -55 24 -71 c 47 -39 110 -16 131 46 c 31 93 -56 162 -127 101 z m 87 -25 c 24 -46 3 -121 -34 -121 c -35 0 -60 65 -44 111 c 8 23 16 29 39 29 c 18 0 32 -7 39 -19 z" stroke-linecap="round"/>
</g>
		<g transform="matrix(0.1333 0 0 -0.1333 139.4279 -54.6634)">
<path style="stroke: none; stroke-width: 1; stroke-dasharray: none; stroke-linecap: butt; stroke-dashoffset: 0; stroke-linejoin: miter; stroke-miterlimit: 4; is-custom-font: none; font-file-url: none; fill: rgb(0,0,0); fill-rule: nonzero; opacity: 1;" transform=" translate(-2555.7342, -1204.9515)" d="M 2461 1286 c -9 -10 -8 -15 4 -20 c 11 -4 15 -21 15 -65 c 0 -33 -4 -63 -10 -66 c -22 -14 -8 -25 33 -25 c 37 1 40 2 25 14 c -27 20 -25 121 1 136 c 32 17 58 12 65 -12 c 9 -36 7 -106 -4 -113 c -22 -14 -8 -25 33 -25 c 37 1 40 2 25 14 c -14 10 -18 28 -18 79 c 0 91 -28 116 -92 83 c -23 -12 -27 -12 -32 0 c -7 18 -30 18 -45 0 z" stroke-linecap="round"/>
</g>
		<g transform="matrix(0.1333 0 0 -0.1333 168.4713 -54.7168)">
<path style="stroke: none; stroke-width: 1; stroke-dasharray: none; stroke-linecap: butt; stroke-dashoffset: 0; stroke-linejoin: miter; stroke-miterlimit: 4; is-custom-font: none; font-file-url: none; fill: rgb(0,0,0); fill-rule: nonzero; opacity: 1;" transform=" translate(-2773.5556, -1205.353)" d="M 2728 1293 c -21 -5 -32 -33 -18 -47 c 7 -7 15 -3 26 12 c 24 35 58 26 62 -15 c 3 -32 2 -33 -32 -33 c -37 0 -76 -28 -76 -54 c 0 -31 29 -45 93 -44 c 68 1 86 6 67 18 c -9 5 -12 29 -11 69 c 1 49 -2 64 -19 81 c -19 19 -52 24 -92 13 z m 72 -123 c 0 -23 -32 -43 -54 -34 c -16 6 -22 35 -9 47 c 3 4 19 7 35 7 c 21 0 28 -5 28 -20 z" stroke-linecap="round"/>
</g>
		<g transform="matrix(0.1333 0 0 -0.1333 7.7433 -6.0286)">
<path style="stroke: none; stroke-width: 1; stroke-dasharray: none; stroke-linecap: butt; stroke-dashoffset: 0; stroke-linejoin: miter; stroke-miterlimit: 4; is-custom-font: none; font-file-url: none; fill: rgb(0,0,0); fill-rule: nonzero; opacity: 1;" transform=" translate(-1568.105, -840.1839)" d="M 1450 951 c 0 -5 9 -13 20 -16 c 18 -6 20 -15 20 -97 c 0 -81 -2 -90 -20 -95 c -11 -3 -20 -10 -20 -15 c 0 -6 34 -9 86 -7 c 82 4 87 5 114 36 c 57 64 45 159 -24 188 c -39 16 -176 21 -176 6 z m 174 -41 c 16 -16 21 -33 21 -76 c 0 -68 -26 -97 -84 -92 l -36 3 l -3 84 c -2 46 0 91 3 99 c 8 20 73 9 99 -18 z" stroke-linecap="round"/>
</g>
		<g transform="matrix(0.1333 0 0 -0.1333 41.2543 -5.9683)">
<path style="stroke: none; stroke-width: 1; stroke-dasharray: none; stroke-linecap: butt; stroke-dashoffset: 0; stroke-linejoin: miter; stroke-miterlimit: 4; is-custom-font: none; font-file-url: none; fill: rgb(0,0,0); fill-rule: nonzero; opacity: 1;" transform=" translate(-1819.427, -839.7319)" d="M 1766 939 c -46 -36 -27 -85 48 -120 c 57 -27 62 -79 7 -79 c -29 0 -61 22 -61 41 c 0 5 -4 9 -10 9 c -18 0 -11 -49 9 -60 c 35 -18 88 -12 118 14 c 24 21 26 27 18 52 c -7 19 -27 38 -59 55 c -59 32 -72 51 -50 73 c 26 27 64 19 77 -16 c 9 -26 27 -22 27 7 c 0 46 -77 61 -124 24 z" stroke-linecap="round"/>
</g>
		<g transform="matrix(0.1333 0 0 -0.1333 73.0242 -5.9131)">
<path style="stroke: none; stroke-width: 1; stroke-dasharray: none; stroke-linecap: butt; stroke-dashoffset: 0; stroke-linejoin: miter; stroke-miterlimit: 4; is-custom-font: none; font-file-url: none; fill: rgb(0,0,0); fill-rule: nonzero; opacity: 1;" transform=" translate(-2057.7135, -839.3189)" d="M 2043 948 c -5 -7 -25 -51 -43 -97 c -19 -47 -42 -93 -52 -103 c -10 -10 -18 -20 -18 -23 c 0 -3 21 -5 48 -5 c 42 1 45 2 29 14 c -13 10 -16 21 -11 40 c 6 24 10 26 60 26 c 50 0 54 -2 60 -27 c 5 -17 3 -28 -4 -31 c -29 -9 -8 -22 36 -22 c 39 1 44 3 31 13 c -8 7 -35 60 -59 120 c -43 103 -57 121 -77 95 z m 47 -115 c 0 -8 -14 -13 -35 -13 c -40 0 -40 0 -18 59 l 17 45 l 18 -40 c 10 -21 18 -45 18 -51 z" stroke-linecap="round"/>
</g>
		<g transform="matrix(0.1333 0 0 -0.1333 35.7604 43.9954)">
<path style="stroke: none; stroke-width: 1; stroke-dasharray: none; stroke-linecap: butt; stroke-dashoffset: 0; stroke-linejoin: miter; stroke-miterlimit: 4; is-custom-font: none; font-file-url: none; fill: rgb(0,0,0); fill-rule: nonzero; opacity: 1;" transform=" translate(-1778.2276, -465)" d="M 1685 591 c -3 -5 -1 -12 5 -16 c 13 -8 13 -225 0 -225 c -5 0 -10 -4 -10 -10 c 0 -5 19 -10 42 -10 c 39 0 40 1 25 18 c -11 12 -17 36 -17 69 c 0 44 3 51 25 61 c 35 16 52 15 59 -4 c 10 -26 7 -124 -4 -124 c -5 0 -10 -4 -10 -10 c 0 -5 19 -10 43 -10 c 37 1 40 2 25 14 c -14 10 -18 28 -18 79 c 0 92 -26 115 -90 82 l -30 -16 l 0 56 c 0 48 -3 55 -19 55 c -11 0 -22 -4 -26 -9 z" stroke-linecap="round"/>
</g>
		<g transform="matrix(0.1333 0 0 -0.1333 4.0288 46.0375)">
<path style="stroke: none; stroke-width: 1; stroke-dasharray: none; stroke-linecap: butt; stroke-dashoffset: 0; stroke-linejoin: miter; stroke-miterlimit: 4; is-custom-font: none; font-file-url: none; fill: rgb(0,0,0); fill-rule: nonzero; opacity: 1;" transform=" translate(-1540.2363, -449.6883)" d="M 1500 557 c -20 -10 -25 -20 -25 -52 c 0 -38 3 -41 53 -69 c 29 -15 56 -34 59 -42 c 17 -44 -73 -60 -92 -16 c -11 25 -28 24 -34 -3 c -5 -26 26 -45 74 -45 c 52 0 85 23 85 58 c 0 37 -9 48 -60 75 c -54 28 -69 49 -50 72 c 19 22 63 15 75 -12 c 13 -30 25 -29 25 2 c 0 41 -58 58 -110 32 z" stroke-linecap="round"/>
</g>
		<g transform="matrix(0.1333 0 0 -0.1333 113.5576 46.5587)">
<path style="stroke: none; stroke-width: 1; stroke-dasharray: none; stroke-linecap: butt; stroke-dashoffset: 0; stroke-linejoin: miter; stroke-miterlimit: 4; is-custom-font: none; font-file-url: none; fill: rgb(0,0,0); fill-rule: nonzero; opacity: 1;" transform=" translate(-2361.6972, -445.7811)" d="M 2340 548 c 0 -6 -10 -22 -22 -35 c -18 -19 -19 -23 -5 -23 c 13 0 17 -14 19 -77 l 3 -78 l 31 -3 c 19 -2 36 3 44 12 c 11 14 8 16 -19 16 l -31 0 l 0 66 c 0 55 3 65 15 60 c 18 -6 45 2 45 15 c 0 5 -13 9 -30 9 c -25 0 -30 4 -30 25 c 0 14 -4 25 -10 25 c -5 0 -10 -5 -10 -12 z" stroke-linecap="round"/>
</g>
		<g transform="matrix(0.1333 0 0 -0.1333 63.6642 49.3302)">
<path style="stroke: none; stroke-width: 1; stroke-dasharray: none; stroke-linecap: butt; stroke-dashoffset: 0; stroke-linejoin: miter; stroke-miterlimit: 4; is-custom-font: none; font-file-url: none; fill: rgb(0,0,0); fill-rule: nonzero; opacity: 1;" transform=" translate(-1987.5, -425)" d="M 1948 491 c -28 -25 -33 -36 -33 -74 c 0 -57 25 -87 72 -87 c 36 0 73 15 73 29 c 0 5 -18 7 -40 4 c -44 -6 -70 8 -70 38 c 0 16 8 19 55 19 c 54 0 55 0 55 30 c 0 34 -31 70 -60 70 c -11 0 -34 -13 -52 -29 z m 76 -17 c 9 -24 -2 -34 -40 -34 c -35 0 -44 16 -22 38 c 17 17 55 15 62 -4 z" stroke-linecap="round"/>
</g>
		<g transform="matrix(0.1333 0 0 -0.1333 90.0178 49.3302)">
<path style="stroke: none; stroke-width: 1; stroke-dasharray: none; stroke-linecap: butt; stroke-dashoffset: 0; stroke-linejoin: miter; stroke-miterlimit: 4; is-custom-font: none; font-file-url: none; fill: rgb(0,0,0); fill-rule: nonzero; opacity: 1;" transform=" translate(-2185.1531, -425)" d="M 2161 506 c -81 -45 -60 -176 28 -176 c 33 0 61 14 61 30 c 0 3 -20 4 -45 2 c -41 -4 -46 -2 -55 23 c -5 14 -10 28 -10 31 c 0 2 27 4 60 4 l 60 0 l 0 30 c 0 33 -30 70 -57 70 c -10 -1 -29 -7 -42 -14 z m 58 -35 c 14 -25 5 -31 -40 -31 c -37 0 -38 1 -27 25 c 14 30 53 34 67 6 z" stroke-linecap="round"/>
</g>
</g>
</g>
</svg>