<?xml version="1.0" standalone="no"?>
<!DOCTYPE svg PUBLIC "-//W3C//DTD SVG 20010904//EN"
 "http://www.w3.org/TR/2001/REC-SVG-20010904/DTD/svg10.dtd">
<svg version="1.0" xmlns="http://www.w3.org/2000/svg"
 width="302.000000pt" height="159.000000pt" viewBox="0 0 302.000000 159.000000"
 preserveAspectRatio="xMidYMid meet">

<g transform="translate(0.000000,159.000000) scale(0.100000,-0.100000)"
fill="#000000" stroke="none">
<path d="M752 1539 c-26 -8 -37 -19 -53 -55 -25 -60 -24 -76 7 -103 27 -23 40
-20 46 13 5 29 32 42 60 28 13 -7 34 -13 48 -14 23 -3 25 0 24 33 -2 59 -12
85 -39 97 -30 14 -47 14 -93 1z"/>
<path d="M2906 1371 c-3 -5 1 -11 9 -15 22 -8 22 -214 0 -222 -27 -11 -5 -24
38 -24 37 1 40 2 25 14 -15 11 -18 31 -18 135 l0 121 -24 0 c-14 0 -27 -4 -30
-9z"/>
<path d="M1440 1341 c0 -6 7 -11 15 -11 12 0 15 -18 15 -100 0 -87 -2 -100
-17 -100 -12 0 -14 -3 -6 -11 5 -5 34 -9 64 -7 52 3 53 4 26 16 l-28 12 3 92
c3 92 3 93 29 96 33 4 59 -21 59 -57 0 -33 -27 -61 -58 -61 -12 0 -22 -5 -22
-11 0 -8 13 -10 38 -6 70 12 107 91 61 133 -16 14 -40 20 -100 23 -53 2 -79 0
-79 -8z"/>
<path d="M730 1320 c0 -5 -7 -10 -15 -10 -9 0 -33 -11 -54 -24 -21 -14 -54
-31 -74 -39 -41 -18 -53 -46 -63 -159 -9 -111 2 -185 32 -215 22 -22 24 -29
15 -56 -6 -16 -11 -43 -11 -59 0 -21 -13 -44 -40 -75 -59 -67 -83 -140 -78
-238 3 -60 10 -93 29 -132 l26 -53 -31 -4 c-17 -3 -74 -10 -126 -16 -125 -14
-267 -46 -297 -66 -17 -11 -23 -23 -21 -42 4 -36 62 -57 232 -83 168 -26 709
-38 946 -20 267 20 486 65 520 107 39 46 -142 101 -397 120 -72 5 -93 10 -93
22 0 8 7 87 16 175 l16 160 -29 41 c-40 56 -123 112 -207 138 -39 12 -77 26
-83 31 -21 15 -15 43 12 55 20 9 25 19 25 50 0 21 -3 41 -6 45 -3 3 -26 -3
-51 -14 -53 -23 -69 -23 -105 -5 -23 12 -29 12 -47 -1 -20 -13 -21 -12 -21 10
0 18 -8 28 -30 37 -16 7 -30 17 -30 22 0 20 106 158 121 158 9 0 32 -6 50 -14
77 -31 78 -31 69 11 -9 40 -26 57 -77 79 -17 7 -34 22 -38 33 -8 26 -85 54
-85 31z m369 -752 l23 -17 -11 -125 c-6 -70 -11 -133 -11 -141 0 -11 -12 -15
-46 -15 -40 0 -45 2 -39 18 37 84 47 130 42 197 -3 39 -9 80 -12 93 -6 19 -5
21 12 15 10 -5 29 -16 42 -25z m-251 -389 l3 -86 -91 -7 c-51 -4 -93 -6 -94
-4 -2 2 -6 42 -9 91 -5 78 -4 87 11 87 9 0 26 -7 36 -15 30 -23 83 -19 96 6 6
11 19 19 28 17 14 -3 17 -18 20 -89z"/>
<path d="M1709 1271 c-76 -76 0 -200 92 -151 31 17 22 26 -23 22 -32 -3 -45 0
-55 14 -25 34 -16 43 45 46 l57 3 -2 35 c-3 63 -64 80 -114 31z m69 -3 c7 -7
12 -20 12 -30 0 -14 -8 -18 -40 -18 -45 0 -50 10 -20 40 23 23 31 25 48 8z"/>
<path d="M1890 1289 c-11 -8 -12 -12 -2 -16 15 -6 17 -143 1 -143 -5 0 -7 -4
-4 -10 3 -5 25 -10 48 -10 37 1 40 2 25 14 -25 18 -26 131 -2 140 25 10 34 7
34 -10 0 -21 24 -12 28 10 6 31 -13 40 -49 25 -25 -10 -34 -10 -37 -1 -5 15
-22 15 -42 1z"/>
<path d="M2080 1282 c-34 -27 -21 -65 33 -94 48 -27 55 -52 15 -56 -19 -2 -31
3 -40 17 -17 28 -28 26 -28 -3 0 -27 16 -36 64 -36 73 0 88 57 26 97 -66 43
-75 57 -41 68 24 7 51 -4 51 -21 0 -18 16 -18 24 1 15 40 -63 60 -104 27z"/>
<path d="M2273 1276 c-24 -21 -28 -32 -28 -76 0 -42 4 -55 24 -71 47 -39 110
-16 131 46 31 93 -56 162 -127 101z m87 -25 c24 -46 3 -121 -34 -121 -35 0
-60 65 -44 111 8 23 16 29 39 29 18 0 32 -7 39 -19z"/>
<path d="M2461 1286 c-9 -10 -8 -15 4 -20 11 -4 15 -21 15 -65 0 -33 -4 -63
-10 -66 -22 -14 -8 -25 33 -25 37 1 40 2 25 14 -27 20 -25 121 1 136 32 17 58
12 65 -12 9 -36 7 -106 -4 -113 -22 -14 -8 -25 33 -25 37 1 40 2 25 14 -14 10
-18 28 -18 79 0 91 -28 116 -92 83 -23 -12 -27 -12 -32 0 -7 18 -30 18 -45 0z"/>
<path d="M2728 1293 c-21 -5 -32 -33 -18 -47 7 -7 15 -3 26 12 24 35 58 26 62
-15 3 -32 2 -33 -32 -33 -37 0 -76 -28 -76 -54 0 -31 29 -45 93 -44 68 1 86 6
67 18 -9 5 -12 29 -11 69 1 49 -2 64 -19 81 -19 19 -52 24 -92 13z m72 -123
c0 -23 -32 -43 -54 -34 -16 6 -22 35 -9 47 3 4 19 7 35 7 21 0 28 -5 28 -20z"/>
<path d="M1450 951 c0 -5 9 -13 20 -16 18 -6 20 -15 20 -97 0 -81 -2 -90 -20
-95 -11 -3 -20 -10 -20 -15 0 -6 34 -9 86 -7 82 4 87 5 114 36 57 64 45 159
-24 188 -39 16 -176 21 -176 6z m174 -41 c16 -16 21 -33 21 -76 0 -68 -26 -97
-84 -92 l-36 3 -3 84 c-2 46 0 91 3 99 8 20 73 9 99 -18z"/>
<path d="M1766 939 c-46 -36 -27 -85 48 -120 57 -27 62 -79 7 -79 -29 0 -61
22 -61 41 0 5 -4 9 -10 9 -18 0 -11 -49 9 -60 35 -18 88 -12 118 14 24 21 26
27 18 52 -7 19 -27 38 -59 55 -59 32 -72 51 -50 73 26 27 64 19 77 -16 9 -26
27 -22 27 7 0 46 -77 61 -124 24z"/>
<path d="M2043 948 c-5 -7 -25 -51 -43 -97 -19 -47 -42 -93 -52 -103 -10 -10
-18 -20 -18 -23 0 -3 21 -5 48 -5 42 1 45 2 29 14 -13 10 -16 21 -11 40 6 24
10 26 60 26 50 0 54 -2 60 -27 5 -17 3 -28 -4 -31 -29 -9 -8 -22 36 -22 39 1
44 3 31 13 -8 7 -35 60 -59 120 -43 103 -57 121 -77 95z m47 -115 c0 -8 -14
-13 -35 -13 -40 0 -40 0 -18 59 l17 45 18 -40 c10 -21 18 -45 18 -51z"/>
<path d="M1685 591 c-3 -5 -1 -12 5 -16 13 -8 13 -225 0 -225 -5 0 -10 -4 -10
-10 0 -5 19 -10 42 -10 39 0 40 1 25 18 -11 12 -17 36 -17 69 0 44 3 51 25 61
35 16 52 15 59 -4 10 -26 7 -124 -4 -124 -5 0 -10 -4 -10 -10 0 -5 19 -10 43
-10 37 1 40 2 25 14 -14 10 -18 28 -18 79 0 92 -26 115 -90 82 l-30 -16 0 56
c0 48 -3 55 -19 55 -11 0 -22 -4 -26 -9z"/>
<path d="M1500 557 c-20 -10 -25 -20 -25 -52 0 -38 3 -41 53 -69 29 -15 56
-34 59 -42 17 -44 -73 -60 -92 -16 -11 25 -28 24 -34 -3 -5 -26 26 -45 74 -45
52 0 85 23 85 58 0 37 -9 48 -60 75 -54 28 -69 49 -50 72 19 22 63 15 75 -12
13 -30 25 -29 25 2 0 41 -58 58 -110 32z"/>
<path d="M2340 548 c0 -6 -10 -22 -22 -35 -18 -19 -19 -23 -5 -23 13 0 17 -14
19 -77 l3 -78 31 -3 c19 -2 36 3 44 12 11 14 8 16 -19 16 l-31 0 0 66 c0 55 3
65 15 60 18 -6 45 2 45 15 0 5 -13 9 -30 9 -25 0 -30 4 -30 25 0 14 -4 25 -10
25 -5 0 -10 -5 -10 -12z"/>
<path d="M1948 491 c-28 -25 -33 -36 -33 -74 0 -57 25 -87 72 -87 36 0 73 15
73 29 0 5 -18 7 -40 4 -44 -6 -70 8 -70 38 0 16 8 19 55 19 54 0 55 0 55 30 0
34 -31 70 -60 70 -11 0 -34 -13 -52 -29z m76 -17 c9 -24 -2 -34 -40 -34 -35 0
-44 16 -22 38 17 17 55 15 62 -4z"/>
<path d="M2161 506 c-81 -45 -60 -176 28 -176 33 0 61 14 61 30 0 3 -20 4 -45
2 -41 -4 -46 -2 -55 23 -5 14 -10 28 -10 31 0 2 27 4 60 4 l60 0 0 30 c0 33
-30 70 -57 70 -10 -1 -29 -7 -42 -14z m58 -35 c14 -25 5 -31 -40 -31 -37 0
-38 1 -27 25 14 30 53 34 67 6z"/>
</g>
</svg>
